<?xml version="1.0" encoding="UTF-8" standalone="no"?>
<!-- Generator: Adobe Illustrator 16.0.0, SVG Export Plug-In . SVG Version: 6.00 Build 0)  -->

<svg
   xmlns:dc="http://purl.org/dc/elements/1.1/"
   xmlns:cc="http://creativecommons.org/ns#"
   xmlns:rdf="http://www.w3.org/1999/02/22-rdf-syntax-ns#"
   xmlns:svg="http://www.w3.org/2000/svg"
   xmlns="http://www.w3.org/2000/svg"
   xmlns:sodipodi="http://sodipodi.sourceforge.net/DTD/sodipodi-0.dtd"
   xmlns:inkscape="http://www.inkscape.org/namespaces/inkscape"
   version="1.1"
   id="Capa_1"
   x="0px"
   y="0px"
   width="554.2px"
   height="554.199px"
   viewBox="0 0 554.2 554.199"
   style="enable-background:new 0 0 554.2 554.199;"
   xml:space="preserve"
   sodipodi:docname="warning.svg"
   inkscape:version="0.92.0 r15299"><metadata
     id="metadata5233"><rdf:RDF><cc:Work
         rdf:about=""><dc:format>image/svg+xml</dc:format><dc:type
           rdf:resource="http://purl.org/dc/dcmitype/StillImage" /></cc:Work></rdf:RDF></metadata><defs
     id="defs5231" /><sodipodi:namedview
     pagecolor="#ffffff"
     bordercolor="#666666"
     borderopacity="1"
     objecttolerance="10"
     gridtolerance="10"
     guidetolerance="10"
     inkscape:pageopacity="0"
     inkscape:pageshadow="2"
     inkscape:window-width="1920"
     inkscape:window-height="1017"
     id="namedview5229"
     showgrid="false"
     inkscape:zoom="0.42583984"
     inkscape:cx="277.10001"
     inkscape:cy="277.09949"
     inkscape:window-x="-8"
     inkscape:window-y="-8"
     inkscape:window-maximized="1"
     inkscape:current-layer="Capa_1" /><g
     id="g5196"
     style="fill:#404041;fill-opacity:1"><path
       d="M538.5,386.199L356.5,70.8c-16.4-28.4-46.7-45.9-79.501-45.9c-32.8,0-63.1,17.5-79.5,45.9L12.3,391.6   c-16.4,28.4-16.4,63.4,0,91.8C28.7,511.8,59,529.3,91.8,529.3H462.2c0.101,0,0.2,0,0.2,0c50.7,0,91.8-41.101,91.8-91.8   C554.2,418.5,548.4,400.8,538.5,386.199z M316.3,416.899c0,21.7-16.7,38.3-39.2,38.3s-39.2-16.6-39.2-38.3V416   c0-21.601,16.7-38.301,39.2-38.301S316.3,394.3,316.3,416V416.899z M317.2,158.7L297.8,328.1c-1.3,12.2-9.4,19.8-20.7,19.8   s-19.4-7.7-20.7-19.8L237,158.6c-1.3-13.1,5.801-23,18-23H299.1C311.3,135.7,318.5,145.6,317.2,158.7z"
       id="path5194"
       style="fill:#404041;fill-opacity:1" /></g><g
     id="g5198" /><g
     id="g5200" /><g
     id="g5202" /><g
     id="g5204" /><g
     id="g5206" /><g
     id="g5208" /><g
     id="g5210" /><g
     id="g5212" /><g
     id="g5214" /><g
     id="g5216" /><g
     id="g5218" /><g
     id="g5220" /><g
     id="g5222" /><g
     id="g5224" /><g
     id="g5226" /></svg>